       <svg class="gnyLm" xmlns="http://www.w3.org/2000/svg" version="1.0" viewBox="0 0 1990.000000 5053.000000" preserveAspectRatio="xMidYMid meet">

           <g transform="translate(0.000000,5053.000000) scale(0.100000,-0.100000)" fill="var(--logo-color)" stroke="none">
               <path d="M9640 49539 c-53 -4 -116 -15 -140 -25 -57 -21 -168 -57 -242 -79 -35 -9 -62 -24 -68 -35 -6 -11 -29 -24 -53 -31 -35 -9 -66 -35 -177 -147 -75 -76 -159 -157 -188 -181 -55 -46 -82 -85 -82 -122 0 -12 -17 -37 -41 -58 -37 -35 -41 -43 -50 -112 -7 -53 -16 -79 -30 -91 -22 -19 -39 -67 -39 -110 0 -14 -7 -34 -17 -43 -15 -15 -17 -95 -24 -853 -4 -460 -12 -4810 -18 -9667 -11 -8731 -26 -14572 -40 -15084 -7 -250 -8 -264 -28 -280 -11 -9 -24 -27 -28 -40 -4 -13 -32 -50 -62 -83 -43 -47 -54 -65 -49 -83 7 -29 -35 -76 -86 -94 -18 -7 -43 -17 -55 -22 -13 -4 -32 -29 -44 -54 -14 -29 -33 -52 -53 -62 -17 -8 -61 -44 -98 -79 -41 -40 -78 -66 -97 -70 -18 -4 -40 -19 -51 -35 -13 -17 -39 -34 -71 -44 -28 -10 -66 -32 -84 -51 -26 -26 -43 -34 -69 -34 -27 0 -40 -6 -52 -24 -15 -24 -42 -35 -152 -65 -29 -8 -46 -19 -52 -35 -7 -18 -19 -25 -54 -30 -30 -5 -49 -14 -56 -26 -20 -37 -246 -130 -316 -130 -31 0 -58 -17 -66 -41 -2 -6 -26 -15 -53 -20 -34 -6 -56 -17 -68 -33 -13 -19 -30 -26 -77 -31 -32 -4 -65 -13 -71 -21 -21 -26 -45 -34 -169 -59 -92 -18 -128 -30 -151 -49 -21 -18 -43 -26 -67 -26 -20 0 -48 -7 -62 -15 -53 -30 -79 -38 -207 -60 -157 -28 -172 -32 -199 -56 -14 -14 -45 -21 -108 -28 -69 -7 -92 -13 -107 -30 -11 -11 -23 -21 -27 -22 -192 -13 -223 -18 -255 -38 -34 -20 -68 -27 -351 -66 -59 -8 -127 -24 -150 -35 -25 -12 -77 -23 -132 -29 -68 -6 -98 -14 -120 -30 -26 -19 -49 -23 -186 -31 -113 -6 -163 -13 -180 -24 -33 -22 -97 -33 -304 -51 -218 -19 -301 -33 -307 -50 -10 -24 -99 -33 -850 -80 l-558 -35 -57 61 c-82 89 -189 234 -262 355 -118 199 -349 735 -472 1096 -45 135 -56 158 -73 158 -30 0 -193 -49 -235 -70 -68 -35 -68 -26 -1 -272 143 -528 178 -703 216 -1068 11 -113 12 -172 5 -265 -13 -150 -45 -326 -71 -384 -51 -116 -51 -543 0 -612 13 -17 24 -55 30 -105 6 -52 16 -86 31 -107 14 -18 25 -52 29 -88 4 -32 15 -66 23 -76 26 -29 36 -64 53 -190 17 -129 40 -223 55 -223 12 0 18 -24 29 -107 6 -46 16 -81 30 -100 18 -24 23 -50 30 -149 6 -85 13 -128 25 -146 14 -21 16 -47 14 -141 -3 -108 -2 -117 19 -136 23 -22 28 -43 38 -151 3 -44 12 -74 27 -94 16 -23 24 -55 33 -146 10 -93 17 -123 34 -147 19 -25 24 -50 31 -148 5 -81 12 -120 21 -126 11 -6 14 -41 14 -151 0 -134 1 -144 22 -165 24 -24 30 -49 37 -167 4 -61 10 -86 27 -110 19 -25 24 -50 31 -151 6 -82 14 -133 27 -160 22 -46 35 -142 56 -415 18 -232 30 -314 51 -345 11 -16 17 -73 24 -209 8 -165 12 -192 31 -223 19 -31 22 -55 30 -250 7 -156 13 -222 24 -243 12 -23 15 -76 15 -268 0 -209 2 -247 19 -300 26 -80 31 -140 41 -512 6 -253 11 -324 25 -360 23 -63 34 -525 34 -1395 0 -879 -11 -1337 -34 -1391 -14 -32 -19 -96 -26 -339 -10 -351 -15 -412 -36 -451 -13 -24 -18 -80 -23 -304 -4 -154 -12 -287 -18 -302 -6 -14 -14 -95 -17 -180 -8 -210 -15 -276 -29 -291 -22 -22 -28 -51 -36 -198 -5 -96 -13 -157 -23 -176 -22 -43 -35 -125 -52 -343 -22 -281 -34 -370 -55 -415 -13 -27 -22 -77 -28 -154 -7 -80 -14 -117 -24 -125 -23 -18 -29 -45 -37 -168 -8 -107 -10 -119 -36 -149 -27 -33 -27 -34 -20 -135 6 -90 4 -106 -14 -147 -15 -32 -21 -67 -21 -114 -1 -90 -14 -151 -34 -166 -14 -10 -20 -43 -30 -150 -9 -91 -18 -143 -28 -155 -24 -27 -29 -49 -38 -177 -6 -96 -13 -130 -32 -165 -22 -43 -23 -55 -23 -230 0 -216 8 -242 89 -297 45 -31 54 -33 135 -33 183 0 240 31 445 235 149 150 239 256 261 308 8 20 30 48 49 62 22 16 37 38 41 58 12 60 17 68 55 92 29 18 47 42 73 98 21 45 48 83 67 98 66 50 90 77 90 104 0 14 11 37 25 51 18 18 25 36 25 64 0 29 4 40 15 40 8 0 17 12 21 28 12 57 28 84 71 121 26 22 49 53 58 77 7 21 21 43 32 49 10 5 20 11 23 13 2 1 3 18 2 37 -2 28 6 43 47 89 35 38 51 66 56 94 4 27 15 46 31 56 15 11 29 35 39 74 31 109 37 124 61 145 13 11 24 31 24 44 0 13 12 31 30 45 17 12 30 30 30 41 0 10 14 32 30 47 25 23 30 36 30 74 0 40 6 52 45 96 25 28 47 60 49 73 3 12 7 34 10 49 4 15 29 55 56 89 37 46 50 71 50 94 0 23 5 34 18 37 11 3 23 22 30 47 8 24 19 41 28 41 17 0 34 39 34 77 0 17 12 38 34 58 43 39 80 149 71 211 -5 37 -3 44 21 63 15 12 32 21 39 21 23 0 46 38 55 93 9 60 20 84 56 132 12 17 27 49 33 71 7 25 21 48 36 58 14 9 25 26 25 37 0 12 13 33 30 49 24 22 31 39 36 85 5 44 12 60 30 72 21 13 24 23 24 74 0 44 4 59 14 59 15 0 26 21 26 50 0 10 14 28 30 40 24 17 30 29 30 57 0 26 8 42 30 63 17 16 33 42 36 60 5 21 15 35 31 41 22 8 23 12 17 63 -6 48 -4 55 15 65 48 26 78 143 91 355 15 243 60 400 194 673 103 208 169 321 404 683 101 157 190 294 197 306 13 20 8 25 -72 83 -47 35 -108 75 -135 89 l-49 27 -50 -54 c-28 -29 -104 -124 -169 -210 -175 -230 -300 -372 -529 -602 -268 -268 -351 -329 -504 -374 -66 -19 -102 -14 -164 21 -52 30 -82 78 -90 144 -3 28 -13 59 -22 67 -26 27 -30 117 -37 848 -7 781 4 1217 32 1295 14 38 18 117 24 480 9 467 13 531 39 570 14 22 17 82 22 475 4 285 10 467 17 495 6 25 15 187 20 360 7 249 12 323 24 350 9 19 19 44 23 55 3 11 10 148 15 305 8 249 11 293 30 350 19 58 22 101 30 385 5 176 12 331 16 345 4 14 14 33 23 44 14 15 17 60 21 295 4 238 7 280 22 306 10 17 18 35 18 42 0 23 76 93 108 99 17 4 38 17 47 30 8 13 33 28 57 35 103 28 138 41 161 63 21 19 42 25 107 31 62 5 87 12 102 27 25 25 70 38 133 38 31 0 64 8 86 19 48 26 142 38 444 56 324 20 453 32 529 52 53 13 182 16 936 20 936 5 1218 -2 1264 -32 17 -11 60 -20 123 -25 54 -4 110 -13 124 -18 34 -14 59 -49 59 -84 0 -17 10 -37 26 -52 23 -21 28 -35 34 -110 5 -50 15 -94 24 -108 12 -17 16 -48 16 -127 0 -94 2 -107 22 -128 19 -20 23 -42 33 -167 9 -116 16 -150 33 -178 19 -31 24 -58 31 -190 6 -111 13 -162 24 -179 20 -31 33 -132 52 -399 20 -276 32 -378 51 -415 12 -22 18 -84 25 -230 10 -232 14 -271 36 -304 18 -28 32 -170 33 -346 0 -66 6 -140 11 -165 6 -25 14 -160 17 -301 6 -214 10 -260 23 -275 28 -33 31 -54 39 -320 8 -228 11 -268 30 -320 19 -51 23 -93 30 -316 9 -264 13 -298 37 -334 15 -24 21 -90 32 -409 4 -130 12 -229 19 -241 8 -15 12 -144 14 -407 3 -351 5 -387 21 -404 23 -26 36 -166 37 -393 0 -206 12 -332 35 -378 14 -28 18 -87 26 -377 5 -235 13 -363 23 -407 8 -34 17 -94 20 -133 25 -288 48 -1255 35 -1515 -10 -221 -26 -270 -88 -270 -37 0 -50 -16 -44 -55 3 -20 -1 -46 -12 -69 -19 -40 -163 -178 -180 -174 -16 4 -149 150 -236 260 -147 185 -319 450 -535 825 -71 125 -104 173 -117 173 -27 0 -148 -54 -211 -94 -38 -24 -56 -42 -56 -56 0 -23 65 -170 149 -338 134 -268 288 -642 355 -863 43 -143 63 -277 76 -519 13 -234 27 -346 46 -375 8 -13 26 -79 40 -147 13 -67 35 -144 48 -169 13 -26 27 -71 31 -100 5 -36 15 -62 31 -79 19 -21 26 -42 33 -112 6 -63 14 -94 29 -113 12 -14 28 -61 37 -103 33 -159 38 -174 60 -200 14 -17 25 -47 29 -84 5 -41 13 -62 27 -72 21 -14 39 -64 39 -109 0 -16 10 -35 24 -48 23 -20 25 -27 19 -85 -5 -53 -3 -66 15 -89 12 -14 24 -47 27 -73 12 -98 17 -113 37 -132 17 -15 24 -38 30 -92 6 -58 12 -76 32 -95 18 -16 26 -38 31 -77 4 -32 15 -65 26 -78 16 -17 18 -31 13 -65 -8 -51 1 -93 20 -93 17 0 33 -40 39 -98 3 -27 13 -49 27 -60 19 -15 24 -33 30 -106 7 -68 13 -93 29 -110 15 -16 30 -64 51 -160 16 -76 38 -152 49 -169 11 -18 24 -61 30 -95 7 -43 17 -68 31 -80 17 -14 23 -35 30 -106 6 -55 15 -95 25 -105 9 -11 15 -36 15 -67 0 -37 6 -59 24 -82 15 -21 26 -53 30 -92 6 -48 12 -63 31 -76 19 -12 25 -28 30 -72 5 -44 13 -62 32 -78 19 -17 26 -35 33 -86 4 -36 15 -77 24 -91 13 -19 16 -44 14 -105 -3 -75 -1 -82 23 -104 19 -18 27 -38 32 -77 4 -38 13 -59 30 -75 19 -18 26 -37 32 -90 5 -47 13 -74 26 -87 25 -25 39 -62 39 -103 0 -19 9 -45 21 -60 18 -23 20 -35 14 -81 -6 -49 -4 -55 21 -78 22 -21 27 -36 34 -106 9 -85 14 -99 40 -118 11 -7 20 -33 23 -65 5 -42 13 -59 37 -80 39 -36 104 -39 144 -7 23 18 26 27 26 81 0 43 5 67 17 80 9 10 20 44 24 75 6 41 15 63 33 80 16 14 26 35 26 51 0 42 16 88 38 110 14 14 22 40 26 83 11 99 16 118 37 129 16 9 19 22 19 83 0 50 5 80 16 95 9 13 20 50 24 84 7 45 15 67 31 78 17 14 23 32 29 98 11 101 16 119 39 127 10 3 22 21 27 43 6 23 17 41 32 47 20 9 22 17 22 82 0 40 4 73 10 73 13 0 30 66 30 117 0 49 15 92 37 108 10 8 19 35 24 76 4 38 13 67 23 74 22 17 34 53 56 182 21 116 32 149 57 168 7 6 17 39 21 74 7 47 15 68 31 80 18 14 23 32 31 106 8 80 12 92 36 111 25 21 26 25 19 79 -6 49 -4 60 13 78 12 14 22 43 25 77 5 40 13 60 29 73 18 15 25 36 35 115 9 77 16 99 33 112 15 11 23 33 30 79 6 42 16 71 31 87 18 19 21 34 20 85 -1 44 3 67 15 80 8 9 19 45 24 80 7 46 15 68 33 85 18 16 26 38 31 77 5 37 15 64 31 81 17 19 27 49 40 123 28 167 45 236 62 255 9 10 20 44 24 75 6 41 15 63 33 80 16 14 26 35 26 51 0 36 19 102 29 102 15 0 31 51 51 165 23 128 33 162 59 186 10 10 20 38 24 67 3 28 24 99 47 159 22 59 45 126 51 148 6 22 14 175 19 340 9 331 13 354 88 575 78 228 187 485 345 810 47 96 97 204 112 239 24 59 25 64 10 82 -24 26 -215 120 -249 122 -27 2 -34 -8 -155 -215 -162 -279 -259 -432 -398 -626 -148 -207 -267 -350 -299 -358 -34 -9 -93 34 -152 110 -65 83 -75 101 -100 175 -12 35 -33 74 -47 87 -18 16 -25 33 -25 58 0 23 -7 42 -21 54 -32 30 -41 136 -37 413 3 215 5 248 21 272 24 37 36 180 37 437 1 224 13 428 28 457 15 28 31 278 47 743 17 500 33 809 45 865 5 22 14 60 19 85 6 25 14 165 19 312 8 223 12 272 26 293 22 34 35 182 36 415 1 208 12 324 35 346 18 19 19 32 20 364 0 209 3 270 14 290 11 19 16 94 22 305 8 270 15 331 40 361 7 9 16 102 24 252 6 130 17 247 23 258 17 32 30 162 47 464 26 463 40 603 66 651 6 12 15 98 20 192 7 152 11 175 30 201 19 25 23 48 30 200 10 193 13 210 40 244 17 22 19 42 19 214 0 150 3 195 15 219 9 17 19 77 24 145 8 98 12 119 31 139 18 19 23 42 30 122 5 54 9 99 10 100 0 1 10 11 21 22 17 16 23 38 30 108 8 74 13 91 34 111 22 20 25 32 25 85 0 109 25 126 193 138 80 6 127 13 144 24 40 26 284 34 1058 34 701 0 1037 -8 1102 -28 41 -12 220 -27 548 -46 313 -18 422 -31 455 -52 14 -9 61 -20 114 -24 77 -7 94 -12 113 -33 16 -18 38 -26 78 -31 35 -5 63 -15 74 -26 9 -10 46 -25 81 -34 125 -30 145 -37 193 -68 54 -34 93 -85 103 -135 4 -18 14 -38 23 -45 28 -20 32 -44 41 -258 8 -182 11 -211 31 -248 20 -39 22 -63 30 -334 6 -211 13 -306 24 -342 12 -40 15 -114 15 -370 0 -300 1 -323 20 -357 26 -50 30 -88 39 -459 6 -249 11 -322 24 -350 26 -58 27 -75 36 -425 8 -280 12 -347 26 -380 25 -59 35 -225 35 -579 0 -390 -10 -534 -39 -572 -28 -35 -28 -101 -1 -136 19 -24 22 -48 30 -239 12 -282 12 -1386 0 -1661 -9 -195 -12 -221 -30 -244 -11 -14 -20 -40 -20 -57 0 -46 -39 -117 -79 -143 -59 -40 -107 -47 -176 -28 -148 41 -281 141 -540 406 -193 198 -326 351 -488 564 -67 87 -145 184 -173 215 l-52 55 -33 -16 c-26 -13 -197 -130 -229 -156 -7 -7 30 -68 200 -328 255 -389 384 -615 474 -826 81 -191 126 -378 126 -520 0 -157 42 -337 86 -366 22 -14 25 -23 24 -62 -3 -64 -2 -68 19 -74 13 -3 22 -17 27 -42 4 -25 14 -40 30 -47 16 -8 25 -22 29 -47 9 -52 23 -81 39 -81 15 0 26 -21 26 -49 0 -10 11 -27 25 -39 21 -19 24 -27 18 -71 -5 -44 -3 -52 13 -58 27 -9 32 -21 40 -81 6 -50 20 -76 45 -84 6 -2 14 -19 18 -37 3 -19 15 -39 26 -45 27 -15 35 -27 35 -54 0 -34 24 -75 91 -152 64 -75 98 -138 99 -182 0 -25 6 -33 45 -66 8 -7 15 -23 15 -35 0 -29 33 -82 64 -102 31 -20 44 -59 38 -108 -4 -36 -1 -42 46 -85 54 -51 72 -79 72 -111 0 -12 13 -32 29 -47 17 -15 34 -44 41 -72 26 -100 41 -138 59 -149 12 -7 21 -29 26 -60 9 -60 18 -77 70 -133 26 -28 52 -72 69 -116 14 -39 37 -80 50 -91 15 -13 26 -37 30 -67 6 -37 13 -50 32 -58 13 -6 27 -23 31 -37 3 -14 21 -46 39 -70 32 -41 44 -72 58 -142 3 -14 16 -31 31 -37 15 -7 25 -20 25 -32 0 -29 18 -60 35 -60 12 0 35 -55 35 -84 0 -5 20 -31 45 -57 34 -36 45 -56 45 -79 0 -23 9 -39 30 -58 17 -15 30 -36 30 -49 0 -22 24 -53 41 -53 5 0 25 -32 44 -71 20 -39 53 -89 74 -112 44 -48 61 -78 61 -104 0 -11 20 -38 45 -62 28 -27 45 -51 45 -66 0 -38 17 -73 40 -80 53 -17 134 -119 129 -163 -3 -37 2 -48 33 -61 43 -19 188 -163 188 -187 0 -11 12 -24 28 -32 16 -7 58 -37 93 -68 101 -88 104 -89 264 -89 166 0 190 9 226 82 23 46 24 56 24 293 0 239 -1 246 -23 282 -19 30 -25 59 -32 152 -6 76 -14 123 -25 139 -12 19 -15 46 -13 126 3 98 2 103 -21 120 -22 17 -25 29 -33 132 -7 87 -14 120 -29 141 -24 34 -28 53 -38 189 -6 85 -12 111 -30 136 -19 25 -24 49 -30 146 -6 74 -14 123 -22 134 -11 12 -14 56 -14 184 0 160 -1 169 -22 188 -25 24 -30 48 -37 180 -4 77 -9 100 -27 125 -20 26 -24 51 -35 210 -8 121 -17 191 -27 211 -19 36 -32 149 -52 440 -18 264 -29 348 -50 400 -13 29 -19 95 -25 280 -9 250 -13 284 -38 323 -12 18 -16 93 -23 385 -6 251 -14 400 -26 487 -16 114 -18 227 -18 1260 0 1027 2 1146 18 1250 12 78 20 222 26 452 6 270 11 342 23 360 25 39 28 71 38 352 6 203 12 282 23 309 21 48 34 166 52 462 23 391 35 496 58 523 6 8 16 87 22 177 9 132 15 168 29 183 21 24 35 116 36 232 1 52 7 101 16 125 27 68 42 154 54 294 18 218 40 364 57 383 11 12 19 50 24 115 11 130 17 163 34 169 18 7 23 36 34 183 8 103 12 116 33 132 21 17 23 24 20 104 -2 67 1 93 13 111 13 20 29 154 35 286 0 4 10 16 21 27 19 18 34 88 38 187 1 6 10 21 20 33 19 22 28 63 66 306 10 65 22 110 36 128 13 18 23 54 28 103 5 41 16 83 24 92 19 22 39 82 77 234 42 165 68 255 91 304 10 22 22 76 28 118 5 46 16 85 26 96 26 29 37 141 33 344 -4 183 -5 195 -35 281 -67 192 -86 440 -54 719 35 307 81 518 238 1101 15 56 24 109 20 118 -8 22 -88 58 -192 86 -44 13 -87 24 -97 27 -13 4 -26 -24 -69 -153 -212 -639 -490 -1193 -731 -1456 l-63 -69 -250 16 c-366 24 -606 44 -820 66 -104 11 -212 22 -240 25 -27 3 -177 14 -333 25 -291 21 -371 32 -409 57 -15 10 -68 18 -155 23 -127 8 -153 14 -206 44 -12 7 -72 16 -132 19 -86 5 -122 12 -163 31 -29 14 -91 29 -142 36 -241 32 -290 41 -333 60 -28 13 -86 25 -146 30 -88 9 -103 13 -124 35 -17 19 -33 25 -65 25 -23 0 -53 7 -67 15 -61 35 -94 44 -235 64 -163 24 -214 36 -230 58 -6 8 -39 18 -74 22 -42 5 -68 14 -76 25 -15 20 -53 32 -167 51 -123 20 -166 33 -177 54 -6 10 -25 21 -43 25 -18 3 -42 18 -53 32 -15 19 -34 27 -75 33 -31 4 -68 17 -85 29 -17 12 -63 29 -105 37 -110 21 -141 32 -169 59 -14 13 -44 26 -65 29 -26 4 -49 17 -67 37 -17 18 -38 30 -52 30 -15 0 -31 9 -40 24 -12 17 -37 29 -98 46 -89 24 -119 38 -119 57 0 7 -18 17 -40 23 -22 6 -45 20 -51 31 -5 11 -49 38 -95 61 -66 31 -91 49 -111 79 -15 23 -37 42 -52 46 -49 11 -80 33 -171 118 -51 47 -108 93 -128 103 -24 11 -38 25 -40 40 -2 13 -29 51 -61 85 -84 91 -101 116 -101 149 0 16 -6 35 -13 43 -11 10 -15 82 -21 307 -11 471 -25 8919 -26 15613 -1 7067 -10 9514 -35 9585 -11 30 -19 106 -25 224 -8 160 -11 183 -30 208 -13 17 -29 67 -40 121 -23 112 -35 146 -56 154 -9 3 -24 24 -34 47 -10 23 -42 69 -72 103 -52 60 -63 77 -87 136 -6 15 -18 27 -29 27 -27 0 -108 55 -176 119 -75 71 -114 98 -146 102 -19 3 -26 11 -28 31 -3 23 -9 27 -45 33 -23 4 -69 18 -102 30 -78 31 -122 41 -226 54 -82 11 -412 32 -454 29 -11 0 -63 -4 -115 -9z"></path>
           </g>
       </svg>